<svg width="95" height="24" viewBox="0 0 95 24" fill="none" xmlns="http://www.w3.org/2000/svg">
<path d="M21.5262 5.64697H19.397V16.3976H21.5262V5.64697Z" fill="#FF4655"/>
<path d="M16.9511 6.24854H14.8218V16.9989H16.9511V6.24854Z" fill="#FF4655"/>
<path d="M12.3759 6.91992H10.2467V17.6723H12.3759V6.91992Z" fill="#FF4655"/>
<path d="M7.80086 7.59912H5.67163L5.67164 18.3528H7.80087L7.80086 7.59912Z" fill="#FF4655"/>
<path d="M77.7632 11.3749L74.3347 7.57959H72.3304V16.3669H74.423V10.7604L77.5533 14.0821H77.9397L81.0159 10.7604V16.3669H83.1087V7.57959H81.1045L77.7632 11.3749Z" fill="white"/>
<path d="M93.078 7.57959L87.8913 13.2911V7.57959H85.7985V16.3669H87.7162L92.9029 10.6555V16.3669H94.995V7.57959H93.078Z" fill="white"/>
<path d="M61.059 10.795C61.059 12.1941 61.8274 13.2961 63.0069 13.7583L60.7952 16.3669H63.3565L65.3684 13.9938H67.5456V16.3669H69.6382V7.57959H64.3106C62.3242 7.57959 61.059 8.93257 61.059 10.795ZM67.5468 9.51498V12.1134H64.6987C63.7484 12.1134 63.2387 11.5861 63.2387 10.8129C63.2387 10.0398 63.7663 9.51242 64.6987 9.51242L67.5468 9.51498Z" fill="white"/>
<path d="M51.3347 9.33705C51.2066 12.3592 50.5663 14.3099 49.3125 14.3099H48.9987V16.4194L49.333 16.4373C51.8469 16.5769 53.2365 14.3803 53.4644 9.58282H56.7711V16.3669H58.8599V7.57959H51.4051L51.3347 9.33705Z" fill="white"/>
<path d="M43.4574 7.45654C40.6271 7.45654 38.5908 9.40729 38.5908 11.9725C38.5908 14.626 40.8064 16.5076 43.4574 16.5076C46.2185 16.5076 48.3636 14.521 48.3636 11.9725C48.3636 9.42394 46.2185 7.45654 43.4574 7.45654ZM43.4574 14.3981C41.8578 14.3981 40.768 13.3613 40.768 11.9725C40.768 10.5491 41.859 9.54041 43.4574 9.54041C45.0556 9.54041 46.1826 10.5952 46.1826 11.9725C46.1826 13.3497 45.0403 14.3981 43.4574 14.3981Z" fill="white"/>
<path d="M36.3714 7.59619H28.9857L28.9154 9.35366C28.8104 11.8855 28.1469 14.2932 26.8931 14.3278L26.313 14.3457V18.3531L28.4235 18.3489V16.3682H35.7554V18.3489H37.8839V14.3278H36.3714V7.59619ZM34.2788 14.3278H29.8131C30.5687 13.1861 30.9734 11.5335 31.0438 9.60071H34.2788V14.3278Z" fill="white"/>
</svg>
