<svg width="68" height="24" viewBox="0 0 68 24" fill="none" xmlns="http://www.w3.org/2000/svg">
<path d="M33.8548 11.0932C33.3856 10.9151 32.7718 10.8618 32.104 10.8618H28.3856V9.72262H34.7753V7.76465H25.7684V16.2374H31.8694C32.7177 16.2374 33.3493 16.1663 33.8188 15.9881C34.8115 15.6143 35.4793 14.7066 35.4793 13.514C35.4793 12.3037 34.8476 11.467 33.8548 11.0932ZM32.5552 14.0302C32.4109 14.0836 32.2123 14.1014 31.9595 14.1014H28.3856V12.7485H31.9595C32.2484 12.7485 32.483 12.7665 32.6635 12.8554C32.8801 12.9622 32.9884 13.158 32.9884 13.4071C32.9884 13.6564 32.8621 13.9234 32.5552 14.0302Z" fill="white"/>
<path d="M42.8177 7.76465H38.9912L35.4714 16.2374H38.4317L38.919 15.0092H42.8899L43.3954 16.2374H46.3376L42.8177 7.76465ZM39.5687 13.1402L40.8143 9.72262H41.0128L42.2582 13.1402H39.5687Z" fill="white"/>
<path d="M49.7061 13.0869V16.2375H47.089V7.76465H49.7061V10.8619H53.9118V7.76465H56.529V16.2375H53.9118V13.0869H49.7061Z" fill="white"/>
<path d="M60.6717 13.0336V16.2375H58.0545V7.76465H60.6717V10.9509H61.3937L64.5525 7.76465H67.8374L63.6499 11.823L67.9999 16.2375H64.5163L61.3937 13.0336H60.6717Z" fill="white"/>
<path d="M0 2.82373H20.7579V12.4131C20.7579 15.0523 19.3302 17.4912 17.0126 18.8109L10.379 22.5884L3.74534 18.8109C1.42769 17.4912 2.37912e-06 15.0523 2.37912e-06 12.4131L0 2.82373Z" fill="#FF4655"/>
<path d="M0 2.82373H20.7579V12.4131C20.7579 15.0523 19.3302 17.4912 17.0126 18.8109L10.379 22.5884L3.74534 18.8109C1.42769 17.4912 2.37912e-06 15.0523 2.37912e-06 12.4131L0 2.82373Z" fill="#FF4655"/>
<path fill-rule="evenodd" clip-rule="evenodd" d="M5.72632 7.76465V10.9466C6.16753 10.4552 6.96975 10.1227 7.887 10.1227H8.88374V13.8216C8.88374 14.8057 8.6126 15.7693 8.21032 16.2431H12.5461C12.1447 15.7688 11.8742 14.8064 11.8742 13.8235V10.1227H12.871C13.7882 10.1227 14.5904 10.4552 15.0316 10.9466V7.76465H5.72632Z" fill="white"/>
</svg>
