<svg width="21" height="20" viewBox="0 0 21 20" fill="none" xmlns="http://www.w3.org/2000/svg">
<path d="M8.00004 9.16667V5C8.00004 4.33696 8.26343 3.70107 8.73227 3.23223C9.20111 2.76339 9.837 2.5 10.5 2.5C11.1631 2.5 11.799 2.76339 12.2678 3.23223C12.7366 3.70107 13 4.33696 13 5V9.16667M5.77587 6.66667H15.225C15.4653 6.66664 15.7028 6.71857 15.9212 6.81892C16.1395 6.91926 16.3336 7.06563 16.4901 7.248C16.6466 7.43037 16.7618 7.64443 16.8278 7.87549C16.8938 8.10655 16.9091 8.34915 16.8725 8.58667L15.8267 15.38C15.7359 15.9704 15.4367 16.5087 14.9834 16.8976C14.53 17.2865 13.9524 17.5002 13.355 17.5H7.64504C7.04787 17.5 6.47044 17.2862 6.01723 16.8973C5.56402 16.5085 5.26498 15.9702 5.17421 15.38L4.12837 8.58667C4.09185 8.34915 4.10712 8.10655 4.17313 7.87549C4.23914 7.64443 4.35434 7.43037 4.51083 7.248C4.66732 7.06563 4.86139 6.91926 5.07974 6.81892C5.2981 6.71857 5.53557 6.66664 5.77587 6.66667Z" stroke="white" stroke-width="1.6" stroke-linecap="round" stroke-linejoin="round"/>
</svg>
