<svg width="20" height="20" viewBox="0 0 20 20" fill="none" xmlns="http://www.w3.org/2000/svg">
<path d="M19.3433 19.3433C18.4676 20.2189 17.0479 20.2189 16.1722 19.3433L0.656744 3.82779C-0.218915 2.95213 -0.218914 1.53241 0.656745 0.656747C1.5324 -0.218913 2.95213 -0.218912 3.82779 0.656747L19.3433 16.1722C20.2189 17.0479 20.2189 18.4676 19.3433 19.3433ZM3.82779 19.3433C2.95213 20.2189 1.5324 20.2189 0.656745 19.3433C-0.218914 18.4676 -0.218915 17.0479 0.656745 16.1722L16.1722 0.656744C17.0479 -0.218916 18.4676 -0.218914 19.3433 0.656746C20.2189 1.53241 20.2189 2.95213 19.3433 3.82779L3.82779 19.3433Z" fill="white"/>
</svg>
