<svg width="161" height="44" viewBox="0 0 161 44" fill="none" xmlns="http://www.w3.org/2000/svg">
<g clip-path="url(#clip0_4001_514)">
<path d="M39.2329 18.0864H27.9608C27.1431 18.0864 26.4813 18.4365 25.9755 19.1389L22.239 24.631C22.1231 24.8272 22.112 25.01 22.21 25.1862C22.3058 25.3624 22.4529 25.4493 22.6467 25.4493H33.1122C35.1153 22.972 37.1696 20.5303 39.2284 18.0887L39.2329 18.0864Z" fill="white"/>
<path d="M35.6678 6.40235C33.8007 4.57166 31.6193 3.14011 29.1305 2.1077C26.6395 1.07752 23.9724 0.540133 21.1315 0.499996C18.1726 0.462089 15.4097 0.977179 12.8429 2.0475C10.2739 3.12004 8.04575 4.59842 6.15853 6.48708C4.2713 8.37575 2.77178 10.6167 1.6644 13.2056C1.26556 14.1354 0.942483 15.092 0.688477 16.0731C2.49549 17.9016 4.25571 19.7947 5.95577 21.6945C6.52394 22.33 7.06092 22.9834 7.59567 23.6345C7.52437 23.0592 7.47535 22.4772 7.47535 21.8818C7.47535 19.9352 7.82517 18.0956 8.52703 16.3608C9.22666 14.6282 10.1803 13.1186 11.3879 11.832C12.5934 10.5476 14.0149 9.51519 15.6503 8.73475C17.2836 7.95654 19.0148 7.56632 20.8463 7.56632C22.8316 7.52841 24.6988 7.93647 26.4501 8.79272C28.2014 9.64898 29.6987 10.7996 30.9442 12.24C31.1002 12.4363 31.2851 12.5232 31.499 12.5032C31.7129 12.4831 31.8778 12.3761 31.9959 12.1821L35.7325 7.33219C36.0043 7.02001 35.9842 6.71007 35.6745 6.39789L35.6678 6.40235Z" fill="white"/>
<path d="M47.2251 21.5917C47.2251 18.5926 47.7799 15.7986 48.8895 13.2076C49.9991 10.6187 51.4964 8.37776 53.3836 6.4891C55.2709 4.60043 57.499 3.11983 60.068 2.04951C62.6371 0.979193 65.3999 0.464103 68.3589 0.49978C71.3156 0.539917 74.0785 1.12413 76.6475 2.25242C79.2165 3.38295 81.4447 4.92153 83.3319 6.86817C85.2191 8.81704 86.7075 11.0848 87.7971 13.6736C88.8866 16.2647 89.4124 19.0185 89.3746 21.9396C89.3367 24.9008 88.7507 27.6635 87.6233 30.2345C86.4936 32.8055 84.9673 35.0443 83.0422 36.953C81.1149 38.8617 78.869 40.3513 76.2999 41.4216C73.7309 42.4919 70.968 43.0271 68.0113 43.0271C65.0546 43.0271 62.3585 42.4718 59.8096 41.3614C57.2606 40.2509 55.0525 38.7324 53.1831 36.8036C51.3159 34.8748 49.8565 32.6071 48.8048 29.9982C47.7532 27.3893 47.2296 24.5842 47.2296 21.585L47.2251 21.5917ZM54.6982 21.8838C54.6982 23.7926 55.0681 25.6032 55.8078 27.3179C56.5476 29.0327 57.5391 30.5311 58.7846 31.8155C60.0301 33.0999 61.4695 34.1144 63.105 34.8525C64.7382 35.5928 66.4917 35.963 68.3589 35.963C70.1882 35.9251 71.9194 35.5148 73.5549 34.7366C75.1881 33.9583 76.6208 32.917 77.8462 31.6103C79.0717 30.3059 80.0365 28.7874 80.7361 27.0526C81.4358 25.32 81.7677 23.4982 81.7299 21.5895C81.7299 19.6808 81.36 17.8701 80.6203 16.1554C79.8805 14.4429 78.8868 12.9511 77.6435 11.6868C76.398 10.4225 74.9475 9.41909 73.2942 8.67879C71.6387 7.93849 69.8985 7.56833 68.0692 7.56833C66.2399 7.60847 64.5087 8.00761 62.8755 8.76575C61.24 9.52612 59.8185 10.5585 58.6131 11.863C57.4054 13.1674 56.454 14.677 55.7521 16.3895C55.0525 18.1043 54.7005 19.935 54.7005 21.8816L54.6982 21.8838Z" fill="white"/>
<path d="M94.9762 13.297C94.9762 11.4663 95.355 9.77385 96.1148 8.2152C96.8723 6.65878 97.904 5.3142 99.2096 4.18368C100.513 3.05538 102.03 2.15899 103.762 1.49673C105.495 0.834474 107.333 0.5 109.281 0.5C112.315 0.5 114.951 1.03516 117.191 2.10548C119.428 3.17802 121.11 4.41335 122.24 5.81591C122.511 6.16599 122.491 6.47817 122.182 6.75021L118.153 10.9557C117.997 11.1118 117.812 11.1898 117.598 11.1898C117.384 11.1898 117.2 11.0939 117.044 10.8977C116.694 10.5097 116.255 10.1195 115.731 9.72926C115.205 9.34127 114.602 8.98004 113.922 8.64779C113.24 8.31778 112.512 8.05466 111.732 7.85843C110.952 7.66444 110.156 7.56632 109.339 7.56632C108.365 7.56632 107.48 7.71126 106.683 8.0056C105.885 8.29771 105.212 8.67678 104.669 9.14504C104.123 9.61331 103.695 10.1574 103.385 10.7817C103.073 11.4039 102.917 12.0661 102.917 12.7685C102.917 13.899 103.287 14.8712 104.027 15.6896C104.767 16.5079 105.874 17.0721 107.356 17.3843L113.075 18.4947C114.942 18.8448 116.587 19.4 118.008 20.1604C119.43 20.9208 120.615 21.8261 121.569 22.8763C122.523 23.9288 123.251 25.1062 123.759 26.4106C124.265 27.715 124.519 29.0886 124.519 30.5291C124.519 32.0877 124.198 33.6263 123.556 35.1448C122.915 36.6633 121.961 38.028 120.695 39.2343C119.43 40.4429 117.884 41.4062 116.054 42.1264C114.225 42.8467 112.124 43.2079 109.749 43.2079C108.075 43.2079 106.509 43.0317 105.05 42.6817C103.59 42.3316 102.267 41.8745 101.081 41.3081C99.8937 40.7439 98.8531 40.1196 97.9574 39.4395C97.0617 38.7594 96.3242 38.086 95.7404 37.4237C95.4664 37.1517 95.4664 36.8395 95.7404 36.4894L99.4191 31.7577C99.5349 31.5637 99.7021 31.4567 99.9137 31.4366C100.128 31.4166 100.313 31.4857 100.469 31.6418C101.012 32.1479 101.616 32.6653 102.278 33.1893C102.94 33.7133 103.659 34.1927 104.437 34.6208C105.214 35.049 106.052 35.399 106.948 35.6733C107.844 35.9453 108.795 36.0814 109.809 36.0814C111.95 36.0814 113.583 35.6131 114.713 34.6788C115.84 33.7445 116.406 32.5382 116.406 31.0576C116.406 29.8891 115.987 28.8656 115.152 27.9893C114.314 27.113 113.08 26.5199 111.447 26.2077L105.725 25.0393C102.456 24.377 99.8491 23.0346 97.9017 21.0077C95.9566 18.983 94.9829 16.4121 94.9829 13.297H94.9762Z" fill="white"/>
<path d="M130.762 1.20264H136.776C136.97 1.20264 137.135 1.27176 137.27 1.40778C137.406 1.5438 137.475 1.71104 137.475 1.90503V27.2024C137.475 28.2549 137.658 29.2561 138.03 30.2105C138.4 31.1648 138.906 32.0211 139.548 32.7815C140.189 33.5418 140.958 34.155 141.854 34.6211C142.749 35.0871 143.721 35.3814 144.773 35.4974C145.978 35.6133 147.117 35.4773 148.188 35.0871C149.258 34.6991 150.191 34.1327 150.991 33.3924C151.787 32.6521 152.422 31.7669 152.887 30.7345C153.355 29.7021 153.587 28.6028 153.587 27.4343V1.90503C153.587 1.71104 153.665 1.54603 153.821 1.40778C153.977 1.27176 154.151 1.20264 154.347 1.20264H160.3C160.494 1.20264 160.659 1.27176 160.797 1.40778C160.933 1.5438 161.002 1.71104 161.002 1.90503V27.4343C161.002 29.5371 160.603 31.5238 159.806 33.3924C159.008 35.261 157.927 36.8977 156.566 38.3003C155.202 39.7028 153.598 40.8222 151.749 41.6606C149.9 42.4968 147.925 42.9361 145.824 42.9762C143.643 43.0141 141.602 42.615 139.695 41.7788C137.787 40.9426 136.114 39.792 134.675 38.3315C133.235 36.871 132.106 35.1763 131.288 33.2497C130.47 31.3209 130.062 29.2673 130.062 27.0865V1.90503C130.062 1.71104 130.129 1.54603 130.267 1.40778C130.403 1.27176 130.568 1.20264 130.764 1.20264H130.762Z" fill="white"/>
<path d="M0.329763 18.5725L24.0927 43.2188C24.0927 43.2188 24.2064 43.4753 24.0014 43.4931C23.7964 43.5109 12.3661 43.4931 12.3661 43.4931L11.847 43.201L0 30.8321V18.713L0.0646157 18.635L0.187163 18.5703H0.329763V18.5725Z" fill="#FF4655"/>
<path d="M41.8844 18.227C41.8844 22.6956 41.8688 27.1664 41.8621 31.6349L38.0163 36.0924C38.0163 36.0924 37.7757 36.3577 37.5462 36.3577H25.8151C25.7951 36.3488 25.746 36.3265 25.7126 36.2774C25.6569 36.1949 25.6903 36.1057 25.6948 36.0946C30.9777 30.0986 36.2606 24.1026 41.5457 18.1043C41.5457 18.1043 41.8844 18.0196 41.8844 18.2292V18.227Z" fill="#FF4655"/>
</g>
<defs>
<clipPath id="clip0_4001_514">
<rect width="161" height="43" fill="white" transform="translate(0 0.5)"/>
</clipPath>
</defs>
</svg>
